<svg width="107" height="39" viewBox="0 0 107 39" fill="none" xmlns="http://www.w3.org/2000/svg">
<path d="M61.9134 29.7864H63.8051C64.502 29.7864 65.0745 30.0353 65.5972 30.558C66.1199 31.0558 66.3688 31.6531 66.3688 32.375C66.3688 32.823 66.2443 33.2461 66.0203 33.6195C65.7963 33.9928 65.4976 34.3662 65.0994 34.5902C64.6762 34.8391 64.2282 35.0133 63.7802 35.0133H61.9134V29.7864ZM62.6601 30.5829V34.0177H63.7802C64.2282 34.0177 64.6015 33.8684 64.9251 33.5448C65.2487 33.2212 65.398 32.823 65.398 32.3501C65.398 31.8523 65.2487 31.4291 64.9251 31.1056C64.6264 30.782 64.2282 30.6078 63.7802 30.6078H62.6601V30.5829Z" fill="#D7F500"/>
<path d="M74.7565 32.8722L73.9352 32.5736C73.1138 32.2998 72.7155 31.7771 72.7155 31.0553C72.7155 30.657 72.8649 30.3334 73.1636 30.0845C73.4622 29.8356 73.8356 29.7112 74.2836 29.7112C74.8312 29.7112 75.4286 29.9103 76.1006 30.2837L75.6775 31.0553C75.105 30.7566 74.6819 30.5823 74.3832 30.5823C74.1343 30.5823 73.96 30.6321 73.8605 30.7566C73.7609 30.881 73.7111 31.0055 73.7111 31.1299C73.7111 31.3788 73.8605 31.5531 74.1343 31.6775L75.1299 32.0758C75.9015 32.3744 76.2748 32.8722 76.2748 33.5194C76.2748 33.9674 76.1006 34.3408 75.777 34.6146C75.4535 34.8884 75.0303 35.0128 74.5325 35.0128C74.2836 35.0128 73.9352 34.9381 73.5618 34.8137C73.1636 34.6892 72.8151 34.515 72.4666 34.291L72.9147 33.5194C73.5867 33.9425 74.1343 34.1416 74.6072 34.1416C74.8312 34.1416 75.0303 34.0919 75.1548 33.9674C75.2792 33.843 75.3539 33.6936 75.3539 33.5194C75.3041 33.1958 75.1299 32.9967 74.7565 32.8722Z" fill="#D7F500"/>
<path d="M86.978 31.8274V33.8932C86.7042 34.2417 86.3806 34.5404 86.0072 34.7146C85.6339 34.8889 85.2356 35.0133 84.8125 35.0133C84.0907 35.0133 83.4684 34.7644 82.9457 34.2417C82.3981 33.719 82.1244 33.0968 82.1244 32.3749C82.1244 31.678 82.3982 31.0558 82.9208 30.5331C83.4435 30.0104 84.0907 29.7366 84.8125 29.7366C85.2605 29.7366 85.6339 29.8112 85.9823 29.9855C86.3308 30.1597 86.6046 30.3837 86.8037 30.6575L86.057 31.2549C85.6837 30.8317 85.2605 30.6077 84.8125 30.6077C84.3894 30.6077 83.9911 30.782 83.6427 31.1304C83.2942 31.4789 83.12 31.902 83.12 32.3749C83.12 32.8727 83.2942 33.2959 83.6178 33.6443C83.9413 33.9928 84.3396 34.167 84.8374 34.167C85.0614 34.167 85.2356 34.1173 85.4597 34.0177C85.6588 33.9181 85.9823 33.7937 85.9823 33.6194V32.823H84.7627V31.8274H86.978Z" fill="#D7F500"/>
<path d="M95.9875 32.9474V29.7863H96.9831V35.0381L93.5482 31.7277V34.9884H92.5526V29.6121L95.9875 32.9474Z" fill="#D7F500"/>
<path d="M102.982 29.7859H104.998C105.521 29.7859 105.944 29.9601 106.268 30.209C106.591 30.4828 106.766 30.8562 106.766 31.3042C106.766 31.6278 106.666 31.9264 106.467 32.1753C106.268 32.4243 106.044 32.6483 105.745 32.7727L106.89 35.0128H105.82L104.725 32.7976H103.953V35.0128H102.957L102.982 29.7859ZM103.978 30.5824V32.0509H105.023C105.571 32.0509 105.82 31.7771 105.82 31.354C105.82 31.1549 105.745 30.9308 105.596 30.8064C105.446 30.6819 105.247 30.5824 104.998 30.5824H103.978Z" fill="#D7F500"/>
<path fill-rule="evenodd" clip-rule="evenodd" d="M10.1914 21.0494L22.2632 0.166504L44.3657 38.4726H12.1578L17.1856 29.761H29.3071L22.2632 17.5897L10.1665 38.4477L0.135765 21.0494H10.1914ZM78.3899 8.57871L77.8672 9.77344L81.2771 17.589H82.2728L78.3899 8.57871ZM72.4659 17.5921L76.3737 8.63158L80.2565 17.5921H79.2609L76.3737 10.7224L73.4864 17.5921H72.4659ZM104.799 13.6319L103.479 13.2337C102.907 13.0594 102.459 12.7856 102.086 12.3625C101.787 12.014 101.613 11.566 101.613 10.9935C101.613 10.3215 101.862 9.77391 102.334 9.35077C102.832 8.92764 103.43 8.72852 104.127 8.72852C104.599 8.72852 104.998 8.80319 105.346 8.92764C105.695 9.05209 106.093 9.2761 106.516 9.57478L106.043 10.3962C105.321 9.87347 104.674 9.62457 104.127 9.62457C103.579 9.62457 103.181 9.77391 102.932 10.0477C102.683 10.3464 102.558 10.6451 102.558 10.9686C102.558 11.5411 102.932 11.9642 103.703 12.238L105.122 12.7856C106.317 13.2337 106.914 14.0799 106.914 15.2995C106.914 16.0214 106.665 16.6187 106.143 17.0419C105.645 17.465 105.023 17.689 104.301 17.689C103.803 17.689 103.255 17.5894 102.658 17.4152C102.086 17.2161 101.563 16.9672 101.065 16.6187L101.538 15.7973C102.434 16.4445 103.33 16.7681 104.276 16.7681C104.724 16.7681 105.122 16.6187 105.446 16.32C105.769 16.0214 105.944 15.6729 105.944 15.2498C105.944 14.9013 105.844 14.5528 105.645 14.279C105.446 14.0052 105.172 13.7812 104.799 13.6319ZM52.4295 8.87793V16.569C52.4295 17.6891 52.0811 18.5851 51.4837 19.2572C50.8863 19.9292 50.1147 20.2279 49.0694 20.2279V19.3816C49.7663 19.3816 50.4632 19.1327 50.8615 18.6349C51.2597 18.1371 51.5086 17.4402 51.5086 16.5441V8.87793H52.4295Z" fill="url(#paint0_linear)"/>
<defs>
<linearGradient id="paint0_linear" x1="69" y1="4" x2="64.345" y2="48.7849" gradientUnits="userSpaceOnUse">
<stop offset="0.1827" stop-color="#939393"/>
<stop offset="0.713542" stop-color="#606060"/>
<stop offset="1" stop-color="#303030"/>
</linearGradient>
</defs>
</svg>
